HIERARCHY
ROOT Hips
{
    OFFSET 0.000000 0.000000 0.000000
    CHANNELS 6 Xposition Yposition Zposition Zrotation Xrotation Yrotation
    JOINT Spine
    {
        OFFSET -0.000000 7.246840 0.000000
        CHANNELS 3 Zrotation Xrotation Yrotation
        JOINT Spine1
        {
            OFFSET -0.000000 20.289354 0.000000
            CHANNELS 3 Zrotation Xrotation Yrotation
            JOINT Neck
            {
                OFFSET -0.000000 20.206032 1.836912
                CHANNELS 3 Zrotation Xrotation Yrotation
                JOINT Head
                {
                    OFFSET -0.000000 12.372654 -1.767522
                    CHANNELS 3 Zrotation Xrotation Yrotation
                    End Site
                    {
                        OFFSET -0.000000 22.094025 0.000000
                    }
                }
            }
            JOINT LeftShoulder
            {
                OFFSET 3.465871 17.201674 -0.568930
                CHANNELS 3 Zrotation Xrotation Yrotation
                JOINT LeftArm
                {
                    OFFSET 14.070313 0.000000 0.000000
                    CHANNELS 3 Zrotation Xrotation Yrotation
                    JOINT LeftForeArm
                    {
                        OFFSET 26.549477 0.000000 0.000000
                        CHANNELS 3 Zrotation Xrotation Yrotation
                        JOINT LeftHand
                        {
                            OFFSET 18.880413 0.000000 0.000000
                            CHANNELS 3 Zrotation Xrotation Yrotation
                            End Site
                            {
                                OFFSET 13.256415 0.000000 0.000000
                            }
                        }
                    }
                }
            }
            JOINT RightShoulder
            {
                OFFSET -3.526370 17.201674 -0.568930
                CHANNELS 3 Zrotation Xrotation Yrotation
                JOINT RightArm
                {
                    OFFSET -14.070313 0.000000 0.000000
                    CHANNELS 3 Zrotation Xrotation Yrotation
                    JOINT RightForeArm
                    {
                        OFFSET -26.549477 0.000000 0.000000
                        CHANNELS 3 Zrotation Xrotation Yrotation
                        JOINT RightHand
                        {
                            OFFSET -18.880413 0.000000 0.000000
                            CHANNELS 3 Zrotation Xrotation Yrotation
                            End Site
                            {
                                OFFSET -13.256415 0.000000 0.000000
                            }
                        }
                    }
                }
            }
        }
    }
    JOINT LeftUpLeg
    {
        OFFSET 8.837609 0.000000 0.000000
        CHANNELS 3 Zrotation Xrotation Yrotation
        JOINT LeftLeg
        {
            OFFSET -0.000000 -41.345005 0.000000
            CHANNELS 3 Zrotation Xrotation Yrotation
            JOINT LeftFoot
            {
                OFFSET -0.000000 -35.500874 0.000000
                CHANNELS 3 Zrotation Xrotation Yrotation
                JOINT LeftToeBase
                {
                    OFFSET -0.000000 -5.744446 13.256415
                    CHANNELS 3 Zrotation Xrotation Yrotation
                    End Site
                    {
                        OFFSET -0.000000 0.000000 3.535044
                    }
                }
            }
        }
    }
    JOINT RightUpLeg
    {
        OFFSET -8.837609 0.000000 0.000000
        CHANNELS 3 Zrotation Xrotation Yrotation
        JOINT RightLeg
        {
            OFFSET -0.000000 -41.345005 0.000000
            CHANNELS 3 Zrotation Xrotation Yrotation
            JOINT RightFoot
            {
                OFFSET -0.000000 -35.500874 0.000000
                CHANNELS 3 Zrotation Xrotation Yrotation
                JOINT RightToeBase
                {
                    OFFSET -0.000000 -5.744446 13.256415
                    CHANNELS 3 Zrotation Xrotation Yrotation
                    End Site
                    {
                        OFFSET -0.000000 0.000000 3.535044
                    }
                }
            }
        }
    }
}
MOTION
Frames:    10
Frame Time:    0.010000
0.753038    82.082108    -14.375086    2.606219    2.873289    -0.809557    -6.432471    -16.840052    -0.880426    0.082754    12.031733    0.063811    4.083962    22.584023    -1.325384    2.520564    -10.956526    -0.536410    7.926961    4.729599    11.642546    -88.578712    41.168308    -0.560346    6.974870    -17.964821    -36.645607    -41.416481    -14.331075    -3.890368    -7.627643    8.439644    2.636372    59.816673    4.189988    8.497516    -8.723159    4.630237    106.436943    -40.873795    7.175231    24.201660    -0.431837    8.019947    0.867350    -1.640318    -9.623042    -5.980520    3.401314    0.555864    0.423659    -1.288867    -1.430171    1.819964    -9.466692    5.880223    -0.234628    8.028803    -8.736794    2.133326    0.638866    -2.493206    -8.189307    -0.767262    0.938315    1.362182    
0.755484    82.081558    -14.375334    2.607863    2.823939    -0.735792    -6.440019    -16.776230    -0.899171    0.109861    12.141947    0.039806    3.999199    22.543243    -1.338034    2.590322    -11.173857    -0.535132    7.896067    4.775184    11.663669    -88.546013    41.084110    -0.561268    7.113481    -17.984089    -36.897552    -41.615185    -14.280969    -3.892370    -7.684261    8.649091    2.445053    59.816673    4.189988    8.497516    -7.520896    6.923552    103.100960    -40.035015    7.598764    23.834330    -0.421369    8.042087    0.828521    -1.662696    -9.579000    -5.995874    3.435296    0.559355    0.418482    -1.281022    -1.436168    1.808955    -9.456734    5.923320    -0.279479    8.016967    -8.688282    2.107418    0.706142    -2.413921    -8.031724    -0.685794    0.847999    1.218719    
0.759005    82.080986    -14.379910    2.613284    2.786228    -0.662879    -6.464881    -16.687428    -0.916317    0.197687    12.196235    0.012678    3.804543    22.491518    -1.348374    2.750211    -11.343301    -0.517693    7.806438    4.835390    11.655208    -88.454887    41.133060    -0.559834    7.390536    -18.116655    -37.142204    -42.129875    -14.294580    -3.879181    -7.842624    8.769714    2.210203    59.816673    4.189988    8.497516    -6.316902    9.187324    99.544685    -39.582321    8.035775    23.655664    -0.416068    8.041883    0.861980    -1.664131    -9.529595    -6.177845    3.414209    0.361639    0.229373    -1.444212    -1.396020    2.038873    -9.454241    5.954796    -0.316929    7.998587    -8.641917    2.106334    0.646775    -2.554761    -8.194829    -0.752306    0.926069    1.335805    
0.776880    82.083168    -14.386230    2.622004    2.765109    -0.616135    -6.174144    -16.628155    -0.829734    -0.352270    12.261264    0.111835    4.157083    22.467134    -1.412752    2.688954    -11.547170    -0.574529    8.052025    4.881246    11.606914    -88.363792    41.053410    -0.597627    7.718834    -18.160915    -37.328831    -42.781708    -14.215952    -3.821653    -7.496051    8.882969    1.913252    69.943649    28.011967    0.914960    -28.468864    -26.593287    87.195625    -25.193340    -4.386972    22.200979    -0.435650    8.039845    0.873225    -1.674635    -9.496607    -6.191586    3.437101    0.360126    0.199003    -1.432835    -1.405247    2.022926    -9.468990    5.962465    -0.348658    7.995705    -8.601372    2.084826    0.715666    -2.460806    -8.051806    -0.677415    0.836736    1.203973    
0.769911    82.084015    -14.401737    2.643647    2.770775    -0.546767    -6.291912    -16.627317    -0.892327    -0.220989    12.379249    0.051506    4.072987    22.437466    -1.392100    2.756171    -11.724900    -0.539039    8.025629    4.896829    11.645830    -88.327049    40.888569    -0.610859    8.137340    -18.063095    -37.433094    -43.602077    -13.981231    -3.714358    -7.622219    9.040239    1.818712    70.307426    28.650211    1.082439    -28.707346    -25.564600    83.741516    -24.506676    -4.572185    22.172565    -0.428725    7.991018    0.908886    -1.712843    -9.446323    -6.303716    3.438247    0.541072    0.454459    -1.274742    -1.425014    1.799962    -9.465190    5.950037    -0.396184    7.960918    -8.568371    2.104088    0.665389    -2.594306    -8.246394    -0.751904    0.938693    1.334911    
0.786960    82.092056    -14.412841    2.652512    2.761026    -0.491154    -6.317424    -16.578785    -0.931201    -0.125473    12.460613    -0.001993    3.945154    22.367435    -1.377077    2.804242    -11.851578    -0.519081    7.953890    4.936812    11.714124    -88.192528    40.770519    -0.693325    8.528013    -17.960882    -37.473991    -44.388908    -13.734171    -3.667334    -7.790426    9.172139    1.709995    70.534096    28.936758    1.292672    -27.672882    -23.975414    81.346939    -25.988821    -5.339622    22.509377    -0.442454    7.982651    0.883434    -1.720965    -9.436682    -6.322103    3.441782    0.366952    0.191427    -1.418355    -1.418046    2.002643    -9.473504    5.953098    -0.449568    7.945915    -8.537142    2.112747    0.681120    -2.616915    -8.257801    -0.750333    0.929449    1.332253    
0.797711    82.094894    -14.424072    2.669955    2.785542    -0.442448    -5.969821    -16.598927    -0.857606    -0.844448    12.609314    0.110901    4.406590    22.302084    -1.416029    2.727552    -12.036996    -0.549632    8.424066    4.897722    11.712554    -88.121109    40.553467    -0.791898    8.775046    -17.785398    -37.410824    -44.971603    -13.443746    -3.700315    -7.283685    9.243000    1.561086    70.548569    28.136074    1.604653    -26.495592    -21.745592    79.178558    -26.717100    -5.204545    22.929529    -0.458630    7.938637    0.925946    -1.755817    -9.412892    -6.335285    3.453717    0.349033    0.108286    -1.419137    -1.404349    2.003580    -9.487522    5.931499    -0.471331    7.938624    -8.534793    2.095397    0.674691    -2.628556    -8.276205    -0.747598    0.919818    1.327533    
0.808112    82.098030    -14.433080    2.675709    2.801373    -0.410004    -5.930472    -16.578135    -0.864740    -0.850677    12.711261    0.096620    4.278343    22.214499    -1.406338    2.847883    -12.171716    -0.518007    8.531711    4.948782    11.776082    -87.945808    40.481903    -0.981142    8.827805    -17.752506    -37.386028    -45.130024    -13.334421    -3.834870    -7.379259    9.263824    1.482666    70.597527    28.345877    1.692520    -25.715767    -20.478125    76.796776    -26.868206    -5.497149    22.860292    -0.466654    7.929590    0.879406    -1.740854    -9.455050    -6.372482    3.440751    0.370801    0.159149    -1.427054    -1.389190    2.014567    -9.488669    5.920691    -0.485210    7.921884    -8.543057    2.070292    0.728916    -2.519590    -8.144229    -0.682327    0.828886    1.212804    
0.818663    82.095268    -14.441326    2.681449    2.844448    -0.372940    -5.903684    -16.559975    -0.881988    -0.835405    12.764465    0.069865    4.170433    22.145924    -1.415996    2.918815    -12.304350    -0.516401    8.678688    5.025598    11.846877    -87.814278    40.449310    -1.105405    8.793363    -17.958620    -37.433407    -45.418049    -13.510104    -3.911875    -7.537219    9.200012    1.410014    70.591431    28.508421    1.704157    -24.815519    -19.318186    74.602119    -26.931017    -5.740992    22.433958    -0.465737    7.894774    0.860521    -1.784246    -9.485893    -6.262490    3.467125    0.365198    0.017453    -1.422479    -1.389537    2.008114    -9.494912    5.897200    -0.510196    7.914193    -8.565888    2.116524    0.688115    -2.641866    -8.352098    -0.756204    0.933306    1.342623    
0.835708    82.089783    -14.446783    2.694536    2.892135    -0.332791    -5.862395    -16.531984    -0.888049    -0.838741    12.783207    0.058101    4.058030    22.087378    -1.414169    2.976458    -12.421560    -0.505926    8.883417    5.324688    11.756534    -87.709038    40.196613    -1.270905    8.786685    -18.298738    -37.672657    -45.634171    -13.793880    -4.004263    -7.701973    9.127464    1.268607    70.567291    28.623207    1.671981    -23.913801    -18.531109    72.513466    -25.947239    -6.019192    21.898867    -0.480165    7.859027    0.821210    -1.781207    -9.529404    -6.355465    3.472254    0.385210    0.103835    -1.420691    -1.370501    2.005356    -9.519187    5.879806    -0.514214    7.917638    -8.611428    2.105770    0.685186    -2.644967    -8.387005    -0.750670    0.936454    1.332752    
